<svg width="23" height="22" viewBox="0 0 23 22" fill="none" xmlns="http://www.w3.org/2000/svg">
<g clip-path="url(#clip0_1_531)">
<g clip-path="url(#clip1_1_531)">
<path d="M7.55762 19.2371L7.01621 20.5047C6.2127 20.0965 5.47363 19.5938 4.80332 19.0051L5.77871 18.0297C6.31582 18.498 6.91309 18.9062 7.55762 19.2371ZM2.57754 11.6875H1.19824C1.2584 12.5984 1.43027 13.4793 1.70098 14.3129L2.98145 13.8016C2.7709 13.127 2.6291 12.418 2.57754 11.6875ZM2.57754 10.3125C2.6377 9.50469 2.80098 8.72266 3.05449 7.98789L1.78691 7.44648C1.46465 8.34883 1.2627 9.31133 1.19824 10.3125H2.57754ZM3.5959 6.72461C3.93105 6.08437 4.33496 5.48711 4.80332 4.94141L3.82793 3.96602C3.23926 4.63633 2.73223 5.37539 2.32832 6.17891L3.5959 6.72461ZM17.8916 18.0297C17.2943 18.5453 16.6283 18.9879 15.9107 19.3359L16.4221 20.6164C17.3115 20.191 18.1322 19.6453 18.867 19.0008L17.8916 18.0297ZM5.77441 3.97031C6.37168 3.45469 7.0377 3.01211 7.75527 2.66406L7.24395 1.38359C6.35449 1.80898 5.53379 2.35469 4.80332 2.99922L5.77441 3.97031ZM20.0701 15.2754C19.735 15.9156 19.3311 16.5129 18.8627 17.0586L19.8381 18.034C20.4268 17.3637 20.9338 16.6203 21.3377 15.8211L20.0701 15.2754ZM21.0885 11.6875C21.0283 12.4953 20.865 13.2773 20.6115 14.0121L21.8791 14.5535C22.2014 13.6469 22.4033 12.6844 22.4635 11.6832H21.0885V11.6875ZM14.6346 19.8516C13.96 20.0664 13.251 20.2039 12.5205 20.2555V21.6348C13.4314 21.5746 14.3123 21.4027 15.1459 21.132L14.6346 19.8516ZM11.1455 20.2555C10.3377 20.1953 9.55566 20.032 8.8209 19.7785L8.27949 21.0461C9.18613 21.3684 10.1486 21.5703 11.1498 21.6305V20.2555H11.1455ZM20.6846 8.19844C20.8994 8.87305 21.0369 9.58203 21.0885 10.3125H22.4678C22.4076 9.40156 22.2357 8.5207 21.965 7.68711L20.6846 8.19844ZM4.80332 17.0586C4.2877 16.4613 3.84512 15.7953 3.49707 15.0777L2.2166 15.5891C2.64199 16.4785 3.1877 17.2992 3.83223 18.034L4.80332 17.0586ZM12.5205 1.74453C13.3283 1.80469 14.1061 1.96797 14.8451 2.22148L15.3865 0.953906C14.4842 0.631641 13.5217 0.429688 12.5205 0.365234V1.74453ZM9.03145 2.14844C9.70605 1.93359 10.415 1.79609 11.1455 1.74453V0.365234C10.2346 0.425391 9.35371 0.597266 8.52012 0.867969L9.03145 2.14844ZM19.8381 3.96602L18.8627 4.94141C19.3783 5.53867 19.8209 6.20469 20.1732 6.92227L21.4537 6.41094C21.0283 5.52148 20.4826 4.70078 19.8381 3.96602ZM17.8916 3.97031L18.867 2.99492C18.1967 2.40625 17.4576 1.89922 16.6541 1.49531L16.1127 2.76289C16.7486 3.09805 17.3502 3.50195 17.8916 3.97031Z" fill="#6B7280"/>
<path d="M11.833 16.8438C12.4975 16.8438 13.0361 16.3051 13.0361 15.6406C13.0361 14.9762 12.4975 14.4375 11.833 14.4375C11.1685 14.4375 10.6299 14.9762 10.6299 15.6406C10.6299 16.3051 11.1685 16.8438 11.833 16.8438Z" fill="#6B7280"/>
<path d="M12.1644 13.4062H11.4769C11.1933 13.4062 10.9613 13.1742 10.9613 12.8906C10.9613 9.83984 14.287 10.1449 14.287 8.25859C14.287 7.39922 13.5222 6.53125 11.8206 6.53125C10.5702 6.53125 9.91712 6.94375 9.27689 7.76445C9.10931 7.9793 8.79994 8.02227 8.58079 7.86758L8.0179 7.47227C7.77728 7.30469 7.72142 6.96523 7.90619 6.7332C8.81712 5.56445 9.89994 4.8125 11.8249 4.8125C14.0722 4.8125 16.0101 6.09297 16.0101 8.25859C16.0101 11.1633 12.6843 10.9871 12.6843 12.8906C12.68 13.1742 12.448 13.4062 12.1644 13.4062Z" fill="#6B7280"/>
</g>
</g>
<defs>
<clipPath id="clip0_1_531">
<rect width="22" height="22" fill="white" transform="translate(0.833008)"/>
</clipPath>
<clipPath id="clip1_1_531">
<path d="M0.833008 0H22.833V22H0.833008V0Z" fill="white"/>
</clipPath>
</defs>
</svg>
