<svg width="138" height="15" viewBox="0 0 138 15" fill="none" xmlns="http://www.w3.org/2000/svg">
<path d="M5.30302 14.4121C4.60635 14.4121 3.92868 14.3488 3.27002 14.2221C2.62402 14.1081 2.02235 13.9435 1.46502 13.7281C0.907682 13.5001 0.420016 13.2341 0.00201569 12.9301L0.857016 10.6121C1.26235 10.8908 1.69935 11.1315 2.16802 11.3341C2.63668 11.5368 3.13702 11.6951 3.66902 11.8091C4.20102 11.9105 4.74568 11.9611 5.30302 11.9611C6.22768 11.9611 6.88635 11.8218 7.27902 11.5431C7.67168 11.2518 7.86802 10.8908 7.86802 10.4601C7.86802 10.2195 7.80468 10.0105 7.67802 9.83312C7.56402 9.65579 7.36768 9.50379 7.08902 9.37712C6.82302 9.23779 6.45568 9.12379 5.98702 9.03512L3.84002 8.57912C2.62402 8.32579 1.71835 7.89512 1.12302 7.28712C0.540349 6.66646 0.249016 5.85579 0.249016 4.85512C0.249016 3.99379 0.477016 3.24646 0.933016 2.61312C1.40168 1.97979 2.04135 1.48579 2.85202 1.13112C3.67535 0.776458 4.61902 0.599125 5.68302 0.599125C6.30368 0.599125 6.89902 0.662458 7.46902 0.789124C8.03902 0.903124 8.56468 1.07412 9.04602 1.30212C9.52735 1.53012 9.94535 1.80246 10.3 2.11912L9.44502 4.28512C8.93835 3.87979 8.36835 3.57579 7.73502 3.37312C7.10168 3.15779 6.41135 3.05012 5.66402 3.05012C5.13202 3.05012 4.67602 3.11979 4.29602 3.25912C3.92868 3.39846 3.64368 3.59479 3.44102 3.84812C3.25102 4.10146 3.15602 4.39279 3.15602 4.72212C3.15602 5.08946 3.28902 5.38712 3.55502 5.61512C3.82102 5.84312 4.28335 6.02679 4.94202 6.16612L7.08902 6.62212C8.33035 6.88812 9.25502 7.31879 9.86302 7.91412C10.471 8.49679 10.775 9.26946 10.775 10.2321C10.775 11.0681 10.547 11.8028 10.091 12.4361C9.64768 13.0568 9.01435 13.5445 8.19102 13.8991C7.38035 14.2411 6.41768 14.4121 5.30302 14.4121ZM12.4779 14.2031V4.87412H15.2899V6.62212H15.0809C15.2456 6.22946 15.4736 5.88746 15.7649 5.59612C16.0562 5.30479 16.4046 5.08312 16.8099 4.93112C17.2152 4.76646 17.6586 4.68412 18.1399 4.68412C18.8619 4.68412 19.4636 4.85512 19.9449 5.19712C20.4262 5.53912 20.7682 6.06479 20.9709 6.77412H20.7049C20.9836 6.12812 21.4079 5.62146 21.9779 5.25412C22.5606 4.87412 23.2256 4.68412 23.9729 4.68412C24.6949 4.68412 25.2839 4.82979 25.7399 5.12112C26.2086 5.39979 26.5569 5.83046 26.7849 6.41312C27.0129 6.98312 27.1269 7.71146 27.1269 8.59812V14.2031H24.2579V8.69312C24.2579 8.07246 24.1566 7.62279 23.9539 7.34412C23.7639 7.05279 23.4346 6.90712 22.9659 6.90712C22.6112 6.90712 22.3009 6.99579 22.0349 7.17312C21.7689 7.33779 21.5662 7.58479 21.4269 7.91412C21.3002 8.23079 21.2369 8.62346 21.2369 9.09212V14.2031H18.3679V8.69312C18.3679 8.07246 18.2666 7.62279 18.0639 7.34412C17.8739 7.05279 17.5446 6.90712 17.0759 6.90712C16.7086 6.90712 16.3982 6.99579 16.1449 7.17312C15.8916 7.33779 15.6952 7.58479 15.5559 7.91412C15.4166 8.23079 15.3469 8.62346 15.3469 9.09212V14.2031H12.4779ZM32.4787 14.4121C31.7947 14.4121 31.1803 14.2791 30.6357 14.0131C30.091 13.7471 29.6667 13.3861 29.3627 12.9301C29.0587 12.4741 28.9067 11.9611 28.9067 11.3911C28.9067 10.7071 29.084 10.1688 29.4387 9.77612C29.7933 9.37079 30.3697 9.08579 31.1677 8.92112C31.9657 8.74379 33.0233 8.65512 34.3407 8.65512H35.3477V10.1371H34.3597C33.8657 10.1371 33.4477 10.1561 33.1057 10.1941C32.7763 10.2321 32.504 10.3018 32.2887 10.4031C32.0733 10.4918 31.915 10.6058 31.8137 10.7451C31.725 10.8845 31.6807 11.0618 31.6807 11.2771C31.6807 11.6318 31.801 11.9231 32.0417 12.1511C32.295 12.3791 32.656 12.4931 33.1247 12.4931C33.492 12.4931 33.815 12.4108 34.0937 12.2461C34.385 12.0688 34.613 11.8345 34.7777 11.5431C34.9423 11.2391 35.0247 10.8971 35.0247 10.5171V8.33212C35.0247 7.77479 34.898 7.38212 34.6447 7.15412C34.3913 6.91346 33.9607 6.79312 33.3527 6.79312C32.846 6.79312 32.3077 6.87546 31.7377 7.04012C31.1803 7.19212 30.623 7.42646 30.0657 7.74312L29.2867 5.82412C29.616 5.59612 30.015 5.39979 30.4837 5.23512C30.965 5.05779 31.4653 4.92479 31.9847 4.83612C32.504 4.73479 32.998 4.68412 33.4667 4.68412C34.442 4.68412 35.24 4.82979 35.8607 5.12112C36.494 5.39979 36.969 5.83679 37.2857 6.43212C37.6023 7.01479 37.7607 7.76846 37.7607 8.69312V14.2031H35.0817V12.3221H35.2147C35.1387 12.7528 34.974 13.1265 34.7207 13.4431C34.48 13.7471 34.1697 13.9878 33.7897 14.1651C33.4097 14.3298 32.9727 14.4121 32.4787 14.4121ZM39.9008 14.2031V4.87412H42.7128V7.15412H42.5228C42.6748 6.39412 43.0042 5.81146 43.5108 5.40612C44.0302 4.98812 44.7142 4.74746 45.5628 4.68412L46.3988 4.62712L46.5698 7.04012L44.9548 7.21112C44.2328 7.27446 43.6945 7.48346 43.3398 7.83812C42.9978 8.19279 42.8268 8.70579 42.8268 9.37712V14.2031H39.9008ZM52.8665 14.4121C51.5365 14.4121 50.5485 14.0891 49.9025 13.4431C49.2565 12.7971 48.9335 11.8471 48.9335 10.5931V7.02112H47.1665V4.87412H48.9335V2.13812H51.8025V4.87412H54.5575V7.02112H51.8025V10.4791C51.8025 11.0111 51.9229 11.4101 52.1635 11.6761C52.4169 11.9421 52.8159 12.0751 53.3605 12.0751C53.5252 12.0751 53.6962 12.0561 53.8735 12.0181C54.0635 11.9801 54.2662 11.9295 54.4815 11.8661L54.8995 13.9561C54.6335 14.0955 54.3169 14.2031 53.9495 14.2791C53.5822 14.3678 53.2212 14.4121 52.8665 14.4121ZM56.2162 14.2031V0.808124H59.1612V11.7141H65.3552V14.2031H56.2162ZM71.252 14.4121C70.2513 14.4121 69.3773 14.2158 68.63 13.8231C67.8953 13.4305 67.3253 12.8668 66.92 12.1321C66.5147 11.3975 66.312 10.5298 66.312 9.52912C66.312 8.52846 66.5147 7.66712 66.92 6.94512C67.3253 6.22312 67.8953 5.66579 68.63 5.27312C69.3773 4.88046 70.2513 4.68412 71.252 4.68412C72.2527 4.68412 73.1203 4.88046 73.855 5.27312C74.6023 5.66579 75.1787 6.22946 75.584 6.96412C76.002 7.68612 76.211 8.54112 76.211 9.52912C76.211 10.5298 76.002 11.3975 75.584 12.1321C75.1787 12.8668 74.6023 13.4305 73.855 13.8231C73.1203 14.2158 72.2527 14.4121 71.252 14.4121ZM71.252 12.2651C71.8727 12.2651 72.373 12.0435 72.753 11.6001C73.133 11.1441 73.323 10.4538 73.323 9.52912C73.323 8.60446 73.133 7.92679 72.753 7.49612C72.373 7.05279 71.8727 6.83112 71.252 6.83112C70.644 6.83112 70.15 7.05279 69.77 7.49612C69.39 7.92679 69.2 8.60446 69.2 9.52912C69.2 10.4538 69.39 11.1441 69.77 11.6001C70.15 12.0435 70.644 12.2651 71.252 12.2651ZM81.1105 14.4121C80.4265 14.4121 79.8122 14.2791 79.2675 14.0131C78.7228 13.7471 78.2985 13.3861 77.9945 12.9301C77.6905 12.4741 77.5385 11.9611 77.5385 11.3911C77.5385 10.7071 77.7158 10.1688 78.0705 9.77612C78.4252 9.37079 79.0015 9.08579 79.7995 8.92112C80.5975 8.74379 81.6552 8.65512 82.9725 8.65512H83.9795V10.1371H82.9915C82.4975 10.1371 82.0795 10.1561 81.7375 10.1941C81.4082 10.2321 81.1358 10.3018 80.9205 10.4031C80.7052 10.4918 80.5468 10.6058 80.4455 10.7451C80.3568 10.8845 80.3125 11.0618 80.3125 11.2771C80.3125 11.6318 80.4328 11.9231 80.6735 12.1511C80.9268 12.3791 81.2878 12.4931 81.7565 12.4931C82.1238 12.4931 82.4468 12.4108 82.7255 12.2461C83.0168 12.0688 83.2448 11.8345 83.4095 11.5431C83.5742 11.2391 83.6565 10.8971 83.6565 10.5171V8.33212C83.6565 7.77479 83.5298 7.38212 83.2765 7.15412C83.0232 6.91346 82.5925 6.79312 81.9845 6.79312C81.4778 6.79312 80.9395 6.87546 80.3695 7.04012C79.8122 7.19212 79.2548 7.42646 78.6975 7.74312L77.9185 5.82412C78.2478 5.59612 78.6468 5.39979 79.1155 5.23512C79.5968 5.05779 80.0972 4.92479 80.6165 4.83612C81.1358 4.73479 81.6298 4.68412 82.0985 4.68412C83.0738 4.68412 83.8718 4.82979 84.4925 5.12112C85.1258 5.39979 85.6008 5.83679 85.9175 6.43212C86.2342 7.01479 86.3925 7.76846 86.3925 8.69312V14.2031H83.7135V12.3221H83.8465C83.7705 12.7528 83.6058 13.1265 83.3525 13.4431C83.1118 13.7471 82.8015 13.9878 82.4215 14.1651C82.0415 14.3298 81.6045 14.4121 81.1105 14.4121ZM88.5327 14.2031V4.87412H91.3447V6.62212H91.1357C91.427 6.00146 91.8577 5.52646 92.4277 5.19712C93.0103 4.85512 93.669 4.68412 94.4037 4.68412C95.151 4.68412 95.7653 4.82979 96.2467 5.12112C96.728 5.39979 97.089 5.83046 97.3297 6.41312C97.5703 6.98312 97.6907 7.71146 97.6907 8.59812V14.2031H94.8217V8.73112C94.8217 8.30046 94.7647 7.95212 94.6507 7.68612C94.5493 7.40746 94.391 7.21112 94.1757 7.09712C93.973 6.97046 93.7133 6.90712 93.3967 6.90712C92.9913 6.90712 92.6367 6.99579 92.3327 7.17312C92.0413 7.33779 91.8133 7.57846 91.6487 7.89512C91.484 8.21179 91.4017 8.57912 91.4017 8.99712V14.2031H88.5327Z" fill="#4880FF"/>
<path d="M106.577 14.4121C105.133 14.4121 103.898 14.1271 102.872 13.5571C101.846 12.9871 101.055 12.1891 100.497 11.1631C99.9528 10.1245 99.6805 8.90212 99.6805 7.49612C99.6805 6.09012 99.9528 4.87412 100.497 3.84812C101.055 2.82212 101.846 2.02412 102.872 1.45412C103.898 0.884125 105.133 0.599125 106.577 0.599125C107.464 0.599125 108.313 0.738458 109.123 1.01712C109.934 1.29579 110.599 1.67579 111.118 2.15712L110.206 4.49412C109.636 4.05079 109.06 3.72779 108.477 3.52512C107.907 3.30979 107.306 3.20212 106.672 3.20212C105.406 3.20212 104.443 3.57579 103.784 4.32312C103.126 5.05779 102.796 6.11546 102.796 7.49612C102.796 8.87679 103.126 9.94079 103.784 10.6881C104.443 11.4355 105.406 11.8091 106.672 11.8091C107.306 11.8091 107.907 11.7078 108.477 11.5051C109.06 11.2898 109.636 10.9605 110.206 10.5171L111.118 12.8541C110.599 13.3355 109.934 13.7155 109.123 13.9941C108.313 14.2728 107.464 14.4121 106.577 14.4121ZM115.604 14.4121C114.92 14.4121 114.305 14.2791 113.761 14.0131C113.216 13.7471 112.792 13.3861 112.488 12.9301C112.184 12.4741 112.032 11.9611 112.032 11.3911C112.032 10.7071 112.209 10.1688 112.564 9.77612C112.918 9.37079 113.495 9.08579 114.293 8.92112C115.091 8.74379 116.148 8.65512 117.466 8.65512H118.473V10.1371H117.485C116.991 10.1371 116.573 10.1561 116.231 10.1941C115.901 10.2321 115.629 10.3018 115.414 10.4031C115.198 10.4918 115.04 10.6058 114.939 10.7451C114.85 10.8845 114.806 11.0618 114.806 11.2771C114.806 11.6318 114.926 11.9231 115.167 12.1511C115.42 12.3791 115.781 12.4931 116.25 12.4931C116.617 12.4931 116.94 12.4108 117.219 12.2461C117.51 12.0688 117.738 11.8345 117.903 11.5431C118.067 11.2391 118.15 10.8971 118.15 10.5171V8.33212C118.15 7.77479 118.023 7.38212 117.77 7.15412C117.516 6.91346 117.086 6.79312 116.478 6.79312C115.971 6.79312 115.433 6.87546 114.863 7.04012C114.305 7.19212 113.748 7.42646 113.191 7.74312L112.412 5.82412C112.741 5.59612 113.14 5.39979 113.609 5.23512C114.09 5.05779 114.59 4.92479 115.11 4.83612C115.629 4.73479 116.123 4.68412 116.592 4.68412C117.567 4.68412 118.365 4.82979 118.986 5.12112C119.619 5.39979 120.094 5.83679 120.411 6.43212C120.727 7.01479 120.886 7.76846 120.886 8.69312V14.2031H118.207V12.3221H118.34C118.264 12.7528 118.099 13.1265 117.846 13.4431C117.605 13.7471 117.295 13.9878 116.915 14.1651C116.535 14.3298 116.098 14.4121 115.604 14.4121ZM126.503 14.4121C125.299 14.4121 124.419 14.1018 123.862 13.4811C123.304 12.8478 123.026 11.9105 123.026 10.6691V0.808124H125.895V10.5551C125.895 10.8718 125.945 11.1505 126.047 11.3911C126.148 11.6191 126.294 11.7901 126.484 11.9041C126.686 12.0181 126.94 12.0751 127.244 12.0751C127.37 12.0751 127.503 12.0688 127.643 12.0561C127.782 12.0435 127.915 12.0181 128.042 11.9801L128.004 14.2031C127.763 14.2665 127.516 14.3171 127.263 14.3551C127.022 14.3931 126.769 14.4121 126.503 14.4121ZM133.801 14.4121C132.788 14.4121 131.901 14.2158 131.141 13.8231C130.394 13.4178 129.818 12.8478 129.412 12.1131C129.007 11.3785 128.804 10.5108 128.804 9.51012C128.804 8.50946 129.007 7.64812 129.412 6.92612C129.818 6.20412 130.394 5.65312 131.141 5.27312C131.901 4.88046 132.788 4.68412 133.801 4.68412C134.409 4.68412 135.011 4.77279 135.606 4.95012C136.214 5.12746 136.708 5.38079 137.088 5.71012L136.29 7.68612C135.986 7.43279 135.632 7.23646 135.226 7.09712C134.821 6.94512 134.441 6.86912 134.086 6.86912C133.339 6.86912 132.756 7.10346 132.338 7.57212C131.933 8.02812 131.73 8.68046 131.73 9.52912C131.73 10.3651 131.933 11.0238 132.338 11.5051C132.756 11.9738 133.339 12.2081 134.086 12.2081C134.441 12.2081 134.821 12.1385 135.226 11.9991C135.632 11.8598 135.986 11.6571 136.29 11.3911L137.088 13.3671C136.708 13.6838 136.214 13.9371 135.606 14.1271C134.998 14.3171 134.397 14.4121 133.801 14.4121Z" fill="#202224"/>
</svg>
