<svg width="20" height="21" viewBox="0 0 20 21" fill="none" xmlns="http://www.w3.org/2000/svg">
<g clip-path="url(#clip0_1_2361)">
<mask id="mask0_1_2361" style="mask-type:luminance" maskUnits="userSpaceOnUse" x="-1" y="0" width="21" height="21">
<path d="M-0.00585938 0.71875H19.9941V20.7188H-0.00585938V0.71875Z" fill="white"/>
</mask>
<g mask="url(#mask0_1_2361)">
<mask id="mask1_1_2361" style="mask-type:luminance" maskUnits="userSpaceOnUse" x="-1" y="0" width="21" height="21">
<path d="M-0.00585938 0.71875H19.9941V20.7188H-0.00585938V0.71875Z" fill="white"/>
</mask>
<g mask="url(#mask1_1_2361)">
<path d="M1.24414 6.03125C1.24414 4.82313 2.22352 3.84375 3.43164 3.84375H16.5566C17.7647 3.84375 18.7441 4.82313 18.7441 6.03125V15.4062C18.7441 16.6144 17.7647 17.5938 16.5566 17.5938H3.43164C2.22352 17.5938 1.24414 16.6144 1.24414 15.4062V6.03125ZM3.43164 5.09375C2.91387 5.09375 2.49414 5.51348 2.49414 6.03125V15.4062C2.49414 15.9241 2.91387 16.3438 3.43164 16.3438H16.5566C17.0744 16.3438 17.4941 15.9241 17.4941 15.4062V6.03125C17.4941 5.51348 17.0744 5.09375 16.5566 5.09375H3.43164Z" fill="#5086FF"/>
<path fill-rule="evenodd" clip-rule="evenodd" d="M3.87582 6.58506C3.66391 6.85753 3.71299 7.25021 3.98545 7.46212L9.61046 11.8371C9.6377 11.8583 9.66649 11.8771 9.69684 11.8935C9.72719 11.9099 9.75869 11.9237 9.79133 11.9349C9.82397 11.9461 9.85731 11.9546 9.89135 11.9603C9.92539 11.9659 9.95966 11.9688 9.99417 11.9688C10.0287 11.9688 10.0629 11.9659 10.097 11.9603C10.131 11.9546 10.1644 11.9461 10.197 11.9349C10.2296 11.9237 10.2611 11.9099 10.2915 11.8935C10.3218 11.8771 10.3506 11.8583 10.3779 11.8371L16.0029 7.46212C16.2754 7.25021 16.3245 6.85753 16.1125 6.58506C15.9006 6.3126 15.508 6.26352 15.2355 6.47543L9.99417 10.552L4.75288 6.47543C4.48042 6.26352 4.08774 6.3126 3.87582 6.58506Z" fill="#5086FF"/>
</g>
</g>
</g>
<defs>
<clipPath id="clip0_1_2361">
<rect width="20" height="20" fill="white" transform="translate(-0.00585938 0.71875)"/>
</clipPath>
</defs>
</svg>
