<svg width="33" height="33" viewBox="0 0 33 33" fill="none" xmlns="http://www.w3.org/2000/svg">
<g clip-path="url(#clip0_1_242)">
<mask id="mask0_1_242" style="mask-type:luminance" maskUnits="userSpaceOnUse" x="0" y="0" width="33" height="33">
<path d="M0.666016 0.5H32.666V32.5H0.666016V0.5Z" fill="white"/>
</mask>
<g mask="url(#mask0_1_242)">
<path d="M26.0007 29.8347H7.33398C5.12485 29.8347 3.33398 28.0438 3.33398 25.8347V4.5013C3.33398 3.76493 3.93094 3.16797 4.66732 3.16797H23.334C24.0703 3.16797 24.6673 3.76493 24.6673 4.5013V20.5012H30.0007V25.8347C30.0007 28.0438 28.2098 29.8347 26.0007 29.8347ZM24.6673 23.168V25.8347C24.6673 26.571 25.2642 27.168 26.0007 27.168C26.737 27.168 27.334 26.571 27.334 25.8347V23.168H24.6673ZM22.0007 27.168V5.83464H6.00066V25.8347C6.00066 26.571 6.59762 27.168 7.33398 27.168H22.0007ZM8.66731 9.83464H19.334V12.5013H8.66731V9.83464ZM8.66731 15.168H19.334V17.8346H8.66731V15.168ZM8.66731 20.5012H15.334V23.168H8.66731V20.5012Z" fill="#5086FF"/>
</g>
</g>
<defs>
<clipPath id="clip0_1_242">
<rect width="32" height="32" fill="white" transform="translate(0.666016 0.5)"/>
</clipPath>
</defs>
</svg>
