<svg width="33" height="33" viewBox="0 0 33 33" fill="none" xmlns="http://www.w3.org/2000/svg">
<g clip-path="url(#clip0_1_254)">
<mask id="mask0_1_254" style="mask-type:luminance" maskUnits="userSpaceOnUse" x="0" y="0" width="33" height="33">
<path d="M0.666016 0.5H32.666V32.5H0.666016V0.5Z" fill="white"/>
</mask>
<g mask="url(#mask0_1_254)">
<path d="M16.6647 19.1653V21.832C12.2464 21.832 8.66472 25.4138 8.66472 29.832H5.99805C5.99805 23.941 10.7737 19.1653 16.6647 19.1653ZM16.6647 17.832C12.2447 17.832 8.66472 14.252 8.66472 9.83203C8.66472 5.41203 12.2447 1.83203 16.6647 1.83203C21.0847 1.83203 24.6648 5.41203 24.6648 9.83203C24.6648 14.252 21.0847 17.832 16.6647 17.832ZM16.6647 15.1654C19.6114 15.1654 21.998 12.7787 21.998 9.83203C21.998 6.88536 19.6114 4.4987 16.6647 4.4987C13.718 4.4987 11.3314 6.88536 11.3314 9.83203C11.3314 12.7787 13.718 15.1654 16.6647 15.1654ZM24.6648 29.1653L20.7462 31.2255L21.4946 26.8621L18.3243 23.7719L22.7054 23.1354L24.6648 19.1653L26.624 23.1354L31.0051 23.7719L27.8348 26.8621L28.5832 31.2255L24.6648 29.1653Z" fill="#5086FF"/>
</g>
</g>
<defs>
<clipPath id="clip0_1_254">
<rect width="32" height="32" fill="white" transform="translate(0.666016 0.5)"/>
</clipPath>
</defs>
</svg>
