<svg width="33" height="33" viewBox="0 0 33 33" fill="none" xmlns="http://www.w3.org/2000/svg">
<g clip-path="url(#clip0_1_234)">
<path d="M23.0647 7.9625C23.0636 9.65915 22.3888 11.2859 21.1887 12.4852C19.9886 13.6845 18.3614 14.3582 16.6647 14.3582C15.3993 14.3578 14.1625 13.9822 13.1106 13.2788C12.0587 12.5755 11.239 11.576 10.7552 10.4068C10.2713 9.23754 10.1451 7.9511 10.3923 6.71012C10.6396 5.46913 11.2493 4.32935 12.1444 3.43489C13.0394 2.54043 14.1796 1.93147 15.4208 1.68502C16.6619 1.43857 17.9483 1.5657 19.1172 2.05033C20.2861 2.53496 21.285 3.35532 21.9877 4.40768C22.6903 5.46004 23.0651 6.69712 23.0647 7.9625ZM27.3314 31.4121H5.99805V27.154C5.99805 25.4566 6.67233 23.8287 7.87256 22.6285C9.0728 21.4283 10.7007 20.754 12.398 20.754H20.9314C22.6288 20.754 24.2566 21.4283 25.4569 22.6285C26.6571 23.8287 27.3314 25.4566 27.3314 27.154V31.4121Z" stroke="#5086FF" stroke-width="2.13333" stroke-linecap="square"/>
</g>
<defs>
<clipPath id="clip0_1_234">
<rect width="32" height="32" fill="white" transform="translate(0.666016 0.5)"/>
</clipPath>
</defs>
</svg>
